<svg width="180" height="180" viewBox="0 0 180 180" fill="none" xmlns="http://www.w3.org/2000/svg">
  <title>Ostrid</title>
  <rect width="180" height="180" fill="#6456F6"/>
  <path fill-rule="evenodd" clip-rule="evenodd" d="M105.393 115.186L88.6117 126.026L33 107.942L50.8632 98.5565L105.393 115.186Z" fill="#F6F6F6"/>
  <path fill-rule="evenodd" clip-rule="evenodd" d="M122.316 83.436L105.393 94.3226L50.8632 76.6578L67.7863 67.7941L122.316 83.436Z" fill="#F6F6F6"/>
  <path fill-rule="evenodd" clip-rule="evenodd" d="M143 51.4701L122.316 63.4608L67.7863 49.5451L85.9031 40.4735C87.6544 39.5965 89.6557 39.3543 91.5657 39.7881L143 51.4701Z" fill="#F6F6F6"/>
  <path d="M105.393 94.3226V115.186L88.6117 126.026M105.393 115.186L50.8632 98.5565M88.6117 126.026L33 107.942M88.6117 126.026V144.886M67.7863 67.7941V49.5451L85.9031 40.4735C87.6544 39.5965 89.6557 39.3543 91.5657 39.7881L143 51.4701V105.428C143 108.313 141.531 110.999 139.102 112.554L88.6117 144.886L38.7438 127.974C35.3101 126.809 33 123.586 33 119.96V107.942L50.8632 98.5565M67.7863 67.7941L50.8632 76.6578V98.5565M122.316 63.4608V83.436L105.393 94.3226M122.316 83.436L67.7863 67.7941M105.393 94.3226L50.8632 76.6578M143 51.4701L122.316 63.4608M122.316 63.4608L67.7863 49.5451" stroke="#F6F6F6" stroke-width="3.17308"/>
</svg>
